<svg width="13" height="13" viewBox="0 0 13 13" fill="none" xmlns="http://www.w3.org/2000/svg">
<circle cx="6.30054" cy="6.30054" r="5.80054" stroke="#383636"/>
<mask id="path-2-inside-1_148_2" fill="white">
<path d="M4.4 9.125L3.875 8.6L5.975 6.5L3.875 4.4L4.4 3.875L6.5 5.975L8.6 3.875L9.125 4.4L7.025 6.5L9.125 8.6L8.6 9.125L6.5 7.025L4.4 9.125Z"/>
</mask>
<path d="M4.4 9.125L3.875 8.6L5.975 6.5L3.875 4.4L4.4 3.875L6.5 5.975L8.6 3.875L9.125 4.4L7.025 6.5L9.125 8.6L8.6 9.125L6.5 7.025L4.4 9.125Z" fill="#383636"/>
<path d="M4.4 9.125L-278.443 291.968L4.40006 574.81L287.243 291.968L4.4 9.125ZM3.875 8.6L-278.968 -274.243L-561.81 8.60005L-278.968 291.443L3.875 8.6ZM5.975 6.5L288.818 289.343L571.66 6.49999L288.818 -276.343L5.975 6.5ZM3.875 4.4L-278.968 -278.443L-561.81 4.40001L-278.968 287.243L3.875 4.4ZM4.4 3.875L287.243 -278.968L4.40001 -561.81L-278.443 -278.968L4.4 3.875ZM6.5 5.975L-276.343 288.818L6.49999 571.66L289.343 288.818L6.5 5.975ZM8.6 3.875L291.443 -278.968L8.60005 -561.81L-274.243 -278.968L8.6 3.875ZM9.125 4.4L291.968 287.243L574.81 4.40006L291.968 -278.443L9.125 4.4ZM7.025 6.5L-275.818 -276.343L-558.66 6.49999L-275.818 289.343L7.025 6.5ZM9.125 8.6L291.968 291.443L574.81 8.6L291.968 -274.243L9.125 8.6ZM8.6 9.125L-274.243 291.968L8.6 574.81L291.443 291.968L8.6 9.125ZM6.5 7.025L289.343 -275.818L6.49999 -558.66L-276.343 -275.818L6.5 7.025ZM287.243 -273.718L286.718 -274.243L-278.968 291.443L-278.443 291.968L287.243 -273.718ZM286.718 291.443L288.818 289.343L-276.868 -276.343L-278.968 -274.243L286.718 291.443ZM288.818 -276.343L286.718 -278.443L-278.968 287.243L-276.868 289.343L288.818 -276.343ZM286.718 287.243L287.243 286.718L-278.443 -278.968L-278.968 -278.443L286.718 287.243ZM-278.443 286.718L-276.343 288.818L289.343 -276.868L287.243 -278.968L-278.443 286.718ZM289.343 288.818L291.443 286.718L-274.243 -278.968L-276.343 -276.868L289.343 288.818ZM-274.243 286.718L-273.718 287.243L291.968 -278.443L291.443 -278.968L-274.243 286.718ZM-273.718 -278.443L-275.818 -276.343L289.868 289.343L291.968 287.243L-273.718 -278.443ZM-275.818 289.343L-273.718 291.443L291.968 -274.243L289.868 -276.343L-275.818 289.343ZM-273.718 -274.243L-274.243 -273.718L291.443 291.968L291.968 291.443L-273.718 -274.243ZM291.443 -273.718L289.343 -275.818L-276.343 289.868L-274.243 291.968L291.443 -273.718ZM-276.343 -275.818L-278.443 -273.718L287.243 291.968L289.343 289.868L-276.343 -275.818Z" fill="#383636" mask="url(#path-2-inside-1_148_2)"/>
</svg>
