<svg width="24" height="24" viewBox="0 0 24 24" fill="none" xmlns="http://www.w3.org/2000/svg">
<g clip-path="url(#clip0_167_30)">
<path d="M13.1436 6.5C13.7165 6.5 14.2659 6.26295 14.671 5.84099C15.076 5.41903 15.3036 4.84674 15.3036 4.25C15.3036 3.65326 15.076 3.08097 14.671 2.65901C14.2659 2.23705 13.7165 2 13.1436 2C12.5707 2 12.0213 2.23705 11.6163 2.65901C11.2112 3.08097 10.9836 3.65326 10.9836 4.25C10.9836 4.84674 11.2112 5.41903 11.6163 5.84099C12.0213 6.26295 12.5707 6.5 13.1436 6.5ZM10.6102 6.419C10.7878 6.464 10.9462 6.565 11.0835 6.691C11.4584 7.03558 11.9075 7.28094 12.3928 7.40627C12.8781 7.53161 13.3853 7.53323 13.8713 7.411C14.0499 7.367 14.2351 7.355 14.4127 7.401L14.5395 7.434C14.907 7.52877 15.224 7.77056 15.4217 8.107L16.7004 10.284C16.7694 10.4019 16.861 10.5036 16.9696 10.5828C17.0781 10.6619 17.2012 10.7168 17.3311 10.744L18.7049 11.029C19.0786 11.1078 19.407 11.3377 19.6182 11.6683C19.8293 11.9989 19.906 12.4033 19.8314 12.7927C19.7569 13.1821 19.5371 13.5249 19.2202 13.7458C18.9034 13.9666 18.5154 14.0476 18.1414 13.971L15.7375 13.471C15.5427 13.4305 15.3581 13.3485 15.1952 13.2301C15.0323 13.1117 14.8947 12.9595 14.791 12.783L14.6153 12.483C14.5648 12.3967 14.492 12.3269 14.4052 12.2816C14.3185 12.2362 14.2213 12.2172 14.1247 12.2266C14.028 12.2359 13.9359 12.2734 13.8587 12.3346C13.7815 12.3959 13.7223 12.4785 13.6879 12.573C13.6047 12.8009 13.5761 13.0465 13.6045 13.2885C13.633 13.5306 13.7176 13.7617 13.8511 13.962L14.8054 15.395C14.9562 15.6215 15.0442 15.8868 15.0598 16.162L15.2998 20.412C15.3222 20.8092 15.1922 21.1993 14.9384 21.4967C14.6847 21.794 14.3279 21.9742 13.9467 21.9975C13.5654 22.0208 13.1908 21.8855 12.9054 21.6211C12.6199 21.3568 12.447 20.9852 12.4246 20.588L12.2326 17.197C12.2202 16.9744 12.1367 16.7625 11.9955 16.595L11.1785 15.627C11.0833 15.5142 10.9619 15.4287 10.826 15.3786C10.6901 15.3284 10.5441 15.3154 10.402 15.3406C10.2599 15.3659 10.1263 15.4286 10.014 15.5229C9.90175 15.6171 9.8145 15.7397 9.76058 15.879L7.75802 21.061C7.68729 21.2437 7.58271 21.4102 7.45023 21.5508C7.31776 21.6914 7.15999 21.8035 6.98594 21.8806C6.63442 22.0364 6.2379 22.0403 5.88362 21.8915C5.52933 21.7427 5.24629 21.4534 5.09678 21.0873C4.94726 20.7211 4.9435 20.308 5.08634 19.939L8.0393 12.305C8.0521 12.251 8.06874 12.197 8.08922 12.143L8.63162 10.673C8.67416 10.559 8.67227 10.4322 8.62635 10.3196C8.58043 10.2071 8.49411 10.1176 8.38579 10.0704C8.27747 10.0232 8.15574 10.0219 8.04653 10.0669C7.93733 10.1118 7.8493 10.1994 7.80122 10.311L6.58394 13.117C6.42353 13.4738 6.13479 13.7506 5.78011 13.8874C5.42543 14.0243 5.03329 14.0103 4.68842 13.8485C4.34355 13.6867 4.07366 13.39 3.93705 13.0226C3.80044 12.6552 3.80808 12.2466 3.95834 11.885L5.51738 8.275C5.59556 8.09348 5.70763 7.92997 5.84707 7.794C5.9865 7.65803 6.1505 7.55231 6.32954 7.483L9.28154 6.343C9.55295 6.2383 9.84835 6.22123 10.1292 6.294L10.6102 6.419Z" fill="white"/>
<path d="M23.0399 1.9264L21.1903 1.75976L20.4799 0L19.7567 1.75976L17.9199 1.9264L19.3151 3.17956L18.8799 5.05263L20.4799 4.05944L22.0479 5.05263L21.6319 3.17956L23.0399 1.9264Z" fill="white"/>
</g>
<defs>
<clipPath id="clip0_167_30">
<rect width="23.04" height="24" fill="white"/>
</clipPath>
</defs>
</svg>
