<svg width="10" height="10" viewBox="0 0 10 10" fill="none" xmlns="http://www.w3.org/2000/svg">
<path d="M3.11458 8.33333C2.60014 8.33333 2.16083 8.15125 1.79667 7.78708C1.4325 7.42292 1.25028 6.98347 1.25 6.46875C1.25 5.96236 1.42694 5.52819 1.78083 5.16625C2.13472 4.80431 2.56486 4.61778 3.07125 4.60667C3.12458 4.60667 3.17806 4.61069 3.23167 4.61875C3.285 4.62681 3.33833 4.63611 3.39167 4.64667L2.26583 2.375C2.20694 2.26278 2.20944 2.15403 2.27333 2.04875C2.33722 1.94375 2.43306 1.89125 2.56083 1.89125H3.59167C3.71944 1.89125 3.83681 1.92486 3.94375 1.99208C4.05097 2.05931 4.13472 2.14903 4.195 2.26125L5 3.87792L5.80417 2.26125C5.86472 2.14903 5.94861 2.05931 6.05583 1.99208C6.16278 1.92486 6.28014 1.89125 6.40792 1.89125H7.43208C7.55986 1.89125 7.65694 1.94375 7.72333 2.04875C7.78972 2.15431 7.79361 2.26306 7.735 2.375L6.61833 4.61792C6.66667 4.60708 6.71625 4.59903 6.76708 4.59375C6.81764 4.58819 6.86972 4.58542 6.92333 4.58542C7.43333 4.59847 7.86528 4.78597 8.21917 5.14792C8.57306 5.50986 8.75 5.94667 8.75 6.45833C8.75 6.97972 8.56792 7.42264 8.20375 7.78708C7.83958 8.15153 7.39667 8.33361 6.875 8.33333C6.79639 8.33333 6.71611 8.32889 6.63417 8.32C6.55222 8.31139 6.47472 8.29472 6.40167 8.27C6.73 8.12695 6.96042 7.88375 7.09292 7.54042C7.22542 7.19708 7.29167 6.83639 7.29167 6.45833C7.29167 5.81889 7.06958 5.27708 6.62542 4.83292C6.18125 4.38875 5.63944 4.16667 5 4.16667C4.36056 4.16667 3.81875 4.38875 3.37458 4.83292C2.93042 5.27708 2.70833 5.81889 2.70833 6.45833C2.70833 6.83972 2.76944 7.20667 2.89167 7.55917C3.01389 7.91195 3.24861 8.14889 3.59583 8.27C3.5175 8.29472 3.43875 8.31139 3.35958 8.32C3.28042 8.32861 3.19875 8.33306 3.11458 8.33333ZM5 8.33333C4.47917 8.33333 4.03653 8.15111 3.67208 7.78667C3.30764 7.42222 3.12528 6.97944 3.125 6.45833C3.12472 5.93722 3.30708 5.49458 3.67208 5.13042C4.03708 4.76625 4.47972 4.58389 5 4.58333C5.52028 4.58278 5.96306 4.76514 6.32833 5.13042C6.69361 5.49569 6.87583 5.93833 6.875 6.45833C6.87417 6.97833 6.69194 7.42111 6.32833 7.78667C5.96472 8.15222 5.52194 8.33444 5 8.33333ZM5 6.91667L5.44625 7.25417C5.48264 7.27806 5.51625 7.27847 5.54708 7.25542C5.57792 7.23236 5.58653 7.20181 5.57292 7.16375L5.40708 6.60792L5.84542 6.29167C5.88153 6.26778 5.89264 6.23722 5.87875 6.2C5.86486 6.16278 5.83819 6.14417 5.79875 6.14417H5.25417L5.08 5.56333C5.06611 5.52556 5.03944 5.50667 5 5.50667C4.96056 5.50667 4.93389 5.52556 4.92 5.56333L4.74625 6.14417H4.20125C4.16181 6.14417 4.13514 6.16278 4.12125 6.2C4.10736 6.23722 4.11847 6.26778 4.15458 6.29167L4.59292 6.60833L4.42708 7.16333C4.41319 7.20139 4.42181 7.23195 4.45292 7.255C4.48403 7.27806 4.51764 7.27778 4.55375 7.25417L5 6.91667Z" fill="white"/>
</svg>
