<svg width="10" height="10" viewBox="0 0 10 10" fill="none" xmlns="http://www.w3.org/2000/svg">
<path d="M3.11458 8.33332C2.60014 8.33332 2.16083 8.15124 1.79667 7.78707C1.4325 7.4229 1.25028 6.98346 1.25 6.46874C1.25 5.96235 1.42694 5.52818 1.78083 5.16624C2.13472 4.80429 2.56486 4.61776 3.07125 4.60665C3.12458 4.60665 3.17806 4.61068 3.23167 4.61874C3.285 4.62679 3.33833 4.6361 3.39167 4.64665L2.26583 2.37499C2.20694 2.26276 2.20944 2.15401 2.27333 2.04874C2.33722 1.94374 2.43306 1.89124 2.56083 1.89124H3.59167C3.71944 1.89124 3.83681 1.92485 3.94375 1.99207C4.05097 2.05929 4.13472 2.14901 4.195 2.26124L5 3.8779L5.80417 2.26124C5.86472 2.14901 5.94861 2.05929 6.05583 1.99207C6.16278 1.92485 6.28014 1.89124 6.40792 1.89124H7.43208C7.55986 1.89124 7.65694 1.94374 7.72333 2.04874C7.78972 2.15429 7.79361 2.26304 7.735 2.37499L6.61833 4.6179C6.66667 4.60707 6.71625 4.59901 6.76708 4.59374C6.81764 4.58818 6.86972 4.5854 6.92333 4.5854C7.43333 4.59846 7.86528 4.78596 8.21917 5.1479C8.57306 5.50985 8.75 5.94665 8.75 6.45832C8.75 6.97971 8.56792 7.42262 8.20375 7.78707C7.83958 8.15151 7.39667 8.3336 6.875 8.33332C6.79639 8.33332 6.71611 8.32887 6.63417 8.31999C6.55222 8.31137 6.47472 8.29471 6.40167 8.26999C6.73 8.12693 6.96042 7.88374 7.09292 7.5404C7.22542 7.19707 7.29167 6.83637 7.29167 6.45832C7.29167 5.81887 7.06958 5.27707 6.62542 4.8329C6.18125 4.38874 5.63944 4.16665 5 4.16665C4.36056 4.16665 3.81875 4.38874 3.37458 4.8329C2.93042 5.27707 2.70833 5.81887 2.70833 6.45832C2.70833 6.83971 2.76944 7.20665 2.89167 7.55915C3.01389 7.91193 3.24861 8.14887 3.59583 8.26999C3.5175 8.29471 3.43875 8.31137 3.35958 8.31999C3.28042 8.3286 3.19875 8.33304 3.11458 8.33332ZM5 8.33332C4.47917 8.33332 4.03653 8.1511 3.67208 7.78665C3.30764 7.42221 3.12528 6.97943 3.125 6.45832C3.12472 5.93721 3.30708 5.49457 3.67208 5.1304C4.03708 4.76624 4.47972 4.58387 5 4.58332C5.52028 4.58276 5.96306 4.76512 6.32833 5.1304C6.69361 5.49568 6.87583 5.93832 6.875 6.45832C6.87417 6.97832 6.69194 7.4211 6.32833 7.78665C5.96472 8.15221 5.52194 8.33443 5 8.33332ZM5 6.91665L5.44625 7.25415C5.48264 7.27804 5.51625 7.27846 5.54708 7.2554C5.57792 7.23235 5.58653 7.20179 5.57292 7.16374L5.40708 6.6079L5.84542 6.29165C5.88153 6.26776 5.89264 6.23721 5.87875 6.19999C5.86486 6.16276 5.83819 6.14415 5.79875 6.14415H5.25417L5.08 5.56332C5.06611 5.52554 5.03944 5.50665 5 5.50665C4.96056 5.50665 4.93389 5.52554 4.92 5.56332L4.74625 6.14415H4.20125C4.16181 6.14415 4.13514 6.16276 4.12125 6.19999C4.10736 6.23721 4.11847 6.26776 4.15458 6.29165L4.59292 6.60832L4.42708 7.16332C4.41319 7.20137 4.42181 7.23193 4.45292 7.25499C4.48403 7.27804 4.51764 7.27776 4.55375 7.25415L5 6.91665Z" fill="#383636"/>
</svg>
