<svg width="24" height="24" viewBox="0 0 24 24" fill="none" xmlns="http://www.w3.org/2000/svg">
<path d="M6.99993 14C6.56341 14.0007 6.1323 14.0966 5.73667 14.281C5.34104 14.4655 4.99044 14.734 4.70932 15.068C4.4282 15.4019 4.22335 15.7932 4.10906 16.2145C3.99476 16.6358 3.97378 17.0769 4.04758 17.5072C4.12137 17.9374 4.28817 18.3463 4.53632 18.7055C4.78448 19.0646 5.10801 19.3652 5.48435 19.5864C5.86068 19.8076 6.28075 19.944 6.71523 19.986C7.14971 20.0281 7.58815 19.9749 7.99993 19.83" stroke="white" stroke-width="1.5" stroke-linecap="round" stroke-linejoin="round"/>
<path d="M4.26391 15.605C3.66548 15.3169 3.1482 14.8843 2.75876 14.3463C2.36933 13.8083 2.12 13.1817 2.03327 12.5232C1.94655 11.8647 2.02515 11.195 2.262 10.5745C2.49885 9.954 2.88648 9.40223 3.38991 8.969M3.41991 8.888C3.09196 8.39725 2.94821 7.80629 3.01413 7.21973C3.08005 6.63318 3.35138 6.08886 3.78009 5.68315C4.2088 5.27743 4.76723 5.03649 5.35652 5.00297C5.94582 4.96945 6.52797 5.14552 6.99991 5.5M7.23791 5.565C7.07839 5.22604 6.99708 4.85557 6.99999 4.48096C7.0029 4.10636 7.08997 3.73719 7.25475 3.40076C7.41953 3.06433 7.65781 2.76923 7.95198 2.53727C8.24615 2.30532 8.58869 2.14244 8.95428 2.06068C9.31987 1.97892 9.69916 1.98036 10.0641 2.0649C10.4291 2.14945 10.7704 2.31493 11.0627 2.54912C11.3551 2.7833 11.5912 3.08021 11.7534 3.41789C11.9156 3.75556 11.9999 4.12538 11.9999 4.5M11.9999 4.5V20M11.9999 4.5C12 4.12538 12.0842 3.75556 12.2464 3.41789C12.4087 3.08021 12.6447 2.7833 12.9371 2.54912C13.2295 2.31493 13.5708 2.14945 13.9357 2.0649C14.3007 1.98036 14.68 1.97892 15.0455 2.06068C15.4111 2.14244 15.7537 2.30532 16.0478 2.53727C16.342 2.76923 16.5803 3.06433 16.7451 3.40076C16.9099 3.73719 16.9969 4.10636 16.9998 4.48096C17.0028 4.85557 16.9214 5.22604 16.7619 5.565M11.9999 20C11.9999 20.5304 11.7892 21.0391 11.4141 21.4142C11.0391 21.7893 10.5303 22 9.99991 22C9.46948 22 8.96077 21.7893 8.5857 21.4142C8.21063 21.0391 7.99991 20.5304 7.99991 20M11.9999 20C11.9999 20.5304 12.2106 21.0391 12.5857 21.4142C12.9608 21.7893 13.4695 22 13.9999 22M11.9999 7C11.9999 7.79565 12.316 8.55871 12.8786 9.12132C13.4412 9.68393 14.2043 10 14.9999 10M20.6099 8.969C21.0465 9.34406 21.3968 9.80915 21.6367 10.3323C21.8767 10.8555 22.0006 11.4244 21.9999 12C21.9999 12.703 21.8189 13.364 21.4999 13.938M20.5799 8.888C20.9079 8.39725 21.0516 7.80629 20.9857 7.21973C20.9198 6.63318 20.6484 6.08886 20.2197 5.68315C19.791 5.27743 19.2326 5.03649 18.6433 5.00297C18.054 4.96945 17.4719 5.14552 16.9999 5.5M18.6669 16L16.9999 19H20.9999L19.3329 22" stroke="white" stroke-width="1.5" stroke-linecap="round" stroke-linejoin="round"/>
</svg>
