<svg width="24" height="24" viewBox="0 0 24 24" fill="none" xmlns="http://www.w3.org/2000/svg">
<path d="M14 9H16V15H14V9ZM21 5V19C21 20.11 20.11 21 19 21H5C4.46957 21 3.96086 20.7893 3.58579 20.4142C3.21071 20.0391 3 19.5304 3 19V5C3 4.46957 3.21071 3.96086 3.58579 3.58579C3.96086 3.21071 4.46957 3 5 3H19C19.5304 3 20.0391 3.21071 20.4142 3.58579C20.7893 3.96086 21 4.46957 21 5ZM10 7H6V9H8V17H10V7ZM18 9C18 8.46957 17.7893 7.96086 17.4142 7.58579C17.0391 7.21071 16.5304 7 16 7H14C13.4696 7 12.9609 7.21071 12.5858 7.58579C12.2107 7.96086 12 8.46957 12 9V15C12 15.5304 12.2107 16.0391 12.5858 16.4142C12.9609 16.7893 13.4696 17 14 17H16C17.11 17 18 16.11 18 15V9Z" fill="white"/>
</svg>
